<svg width="362" height="41" viewBox="0 0 362 41" fill="none" xmlns="http://www.w3.org/2000/svg">
<path d="M23.5622 20.0967C21.8034 19.4563 19.4934 18.8225 16.6324 18.1963C14.3965 17.7203 12.6311 17.2651 11.334 16.8328C10.037 16.4014 8.95662 15.7895 8.09288 14.9999C7.2282 14.2102 6.79586 13.1593 6.79586 11.848C6.79586 10.5367 7.10087 9.50102 7.7128 8.56222C8.32378 7.62342 9.21032 6.90127 10.3734 6.39386C11.5355 5.8874 12.9066 5.63369 14.4868 5.63369C17.0799 5.63369 19.1371 6.26748 20.6565 7.5341C22.1768 8.80167 23.1299 10.6859 23.5175 13.1897H29.062C28.794 10.6859 28.0339 8.51756 26.7815 6.68462C25.5301 4.85168 23.853 3.44348 21.7521 2.45906C19.6502 1.4756 17.2291 0.983398 14.4868 0.983398C11.9232 0.983398 9.64267 1.44615 7.64629 2.36975C5.64896 3.29429 4.08398 4.57612 2.95133 6.21522C1.81869 7.85432 1.25237 9.73287 1.25237 11.849C1.25237 14.2634 1.87095 16.1715 3.10812 17.5721C4.34433 18.9736 5.8428 19.9789 7.60163 20.5899C9.35951 21.2009 11.6552 21.8052 14.4868 22.401C16.7226 22.8485 18.4957 23.2809 19.807 23.698C21.1183 24.1161 22.2139 24.7337 23.0928 25.5538C23.9717 26.3738 24.4117 27.4694 24.4117 28.8396C24.4117 30.3 24.0164 31.5666 23.2268 32.6394C22.4362 33.7122 21.3786 34.5332 20.0521 35.0986C18.7257 35.6649 17.2576 35.948 15.648 35.948C13.949 35.948 12.3621 35.6202 10.8865 34.9646C9.41082 34.3089 8.18125 33.2428 7.19779 31.7681C6.21433 30.2924 5.66226 28.4224 5.54349 26.1571H0C0.149182 29.3764 0.998664 32.0741 2.54845 34.25C4.09823 36.426 6.03569 38.028 8.36084 39.0562C10.686 40.0843 13.1147 40.5993 15.6489 40.5993C18.1831 40.5993 20.4997 40.1147 22.6909 39.1464C24.882 38.1782 26.6399 36.807 27.9664 35.033C29.2919 33.2599 29.9561 31.1951 29.9561 28.8405C29.9561 26.4859 29.3299 24.5636 28.0785 23.1621C26.8271 21.7615 25.321 20.741 23.5631 20.0996L23.5622 20.0967Z" fill="#7F7F7F"/>
<path d="M51.0715 10.283C49.402 9.44876 47.4342 9.03162 45.1698 9.03162C42.9055 9.03162 40.9899 9.44115 39.3356 10.2612C37.6813 11.0812 36.3766 12.2585 35.4236 13.7931C34.4696 15.3286 33.9185 17.1682 33.7693 19.3147H39.1341C39.3128 17.4666 39.9238 16.0365 40.9671 15.0226C42.0104 14.0097 43.411 13.5023 45.1698 13.5023C46.9287 13.5023 48.4186 14.024 49.4619 15.0673C50.5052 16.1106 51.0269 17.5264 51.0269 19.3147V21.8185H44.097C41.6826 21.8185 39.5513 22.2138 37.7031 23.0034C35.855 23.794 34.4173 24.9038 33.3883 26.3348C32.3601 27.7658 31.8461 29.4201 31.8461 31.2977C31.8461 33.0566 32.2708 34.6434 33.1203 36.0592C33.9698 37.475 35.1395 38.5858 36.6303 39.3906C38.1203 40.1954 39.7746 40.5974 41.5933 40.5974C43.9479 40.5974 46.0421 39.9113 47.8751 38.5402C49.1094 37.6166 50.1574 36.444 51.0269 35.0339V39.7926H56.3024V19.3157C56.3024 17.23 55.8473 15.4113 54.9389 13.8605C54.0295 12.3108 52.7401 11.1183 51.0715 10.284V10.283ZM47.2707 34.7394C46.0478 35.6639 44.5883 36.1257 42.8893 36.1257C41.1904 36.1257 39.8563 35.7086 38.7987 34.8743C37.7402 34.04 37.2119 32.952 37.2119 31.6104C37.2119 30.5974 37.5093 29.6881 38.106 28.8833C38.7018 28.0784 39.5294 27.4456 40.587 26.9829C41.6446 26.5211 42.8152 26.2902 44.097 26.2902H50.9594C50.8349 27.9435 50.5385 29.4201 50.0662 30.7162C49.4248 32.475 48.4936 33.8167 47.2717 34.7403L47.2707 34.7394Z" fill="#7F7F7F"/>
<path d="M68.9686 3.12988H63.6931V9.83642H57.3894V14.7547H63.6931V32.8627C63.6931 34.2643 63.9762 35.4862 64.5425 36.5286C65.1089 37.5719 65.9289 38.3767 67.0017 38.9431C68.0744 39.5094 69.3411 39.7925 70.8025 39.7925H77.0615V34.8743H70.8025C70.3255 34.8743 69.9596 34.8144 69.7069 34.6957C69.4532 34.5769 69.2669 34.3754 69.1482 34.0923C69.0284 33.8091 68.9695 33.3996 68.9695 32.8627V14.7547H77.0624V9.83642H68.9695V3.12988H68.9686Z" fill="#7F7F7F"/>
<path d="M97.6866 25.2611C97.6866 27.0798 97.2989 28.7711 96.5245 30.3361C95.7492 31.9011 94.7134 33.1525 93.4174 34.0913C92.1203 35.0301 90.7273 35.4995 89.2374 35.4995C87.6572 35.4995 86.4134 34.9484 85.5041 33.8452C84.5947 32.743 84.1405 31.2227 84.1405 29.2852V9.83643H78.865V29.2852C78.865 32.8323 79.647 35.605 81.212 37.6014C82.777 39.5987 84.9596 40.5974 87.7617 40.5974C89.9368 40.5974 91.9198 39.9788 93.7081 38.7416C95.275 37.6584 96.6005 36.1628 97.6876 34.2557V39.7925H102.963V9.83643H97.6876V25.2611H97.6866Z" fill="#7F7F7F"/>
<path d="M117.768 7.44383C119.467 6.23707 121.508 5.63274 123.893 5.63274C126.605 5.60329 128.811 6.3701 130.51 7.93509C132.209 9.50007 133.297 11.7578 133.774 14.7091H139.363C138.917 11.8186 138.006 9.33664 136.636 7.26519C135.265 5.19375 133.499 3.62877 131.338 2.57024C129.176 1.51266 126.695 0.983398 123.894 0.983398C120.407 0.983398 117.389 1.78157 114.841 3.37506C112.292 4.97045 110.339 7.24999 108.983 10.2156C107.627 13.1821 106.949 16.6912 106.949 20.7448C106.949 24.7984 107.634 28.2333 109.005 31.2293C110.376 34.2253 112.343 36.5353 114.907 38.1592C117.47 39.784 120.466 40.5955 123.894 40.5955C126.695 40.5955 129.177 40.0662 131.338 39.0086C133.499 37.9511 135.265 36.3861 136.636 34.3137C138.007 32.2422 138.917 29.7461 139.363 26.8251H133.774C133.267 29.8059 132.171 32.0788 130.488 33.6438C128.804 35.2088 126.606 35.9765 123.894 35.9461C121.48 35.9461 119.423 35.3428 117.724 34.1351C116.025 32.9283 114.728 31.1923 113.834 28.926C112.94 26.6608 112.493 23.9337 112.493 20.7438C112.493 17.554 112.947 14.9172 113.856 12.6509C114.765 10.3857 116.069 8.64964 117.768 7.44193V7.44383Z" fill="#7F7F7F"/>
<path d="M161.976 10.9757C159.95 9.67868 157.58 9.03064 154.868 9.03064C152.156 9.03064 149.785 9.67868 147.759 10.9757C145.732 12.2727 144.16 14.1133 143.043 16.4973C141.925 18.8823 141.366 21.6541 141.366 24.8135C141.366 27.9729 141.925 30.701 143.043 33.085C144.16 35.4701 145.733 37.3182 147.759 38.6295C149.786 39.9408 152.156 40.5964 154.868 40.5964C157.58 40.5964 159.95 39.9484 161.976 38.6513C164.003 37.3543 165.576 35.5147 166.693 33.1297C167.811 30.7456 168.369 27.9729 168.369 24.8135C168.369 21.6541 167.811 18.8823 166.693 16.4973C165.575 14.1133 164.003 12.2727 161.976 10.9757ZM162.022 30.8502C161.366 32.5491 160.435 33.8538 159.227 34.7621C158.021 35.6715 156.582 36.1257 154.913 36.1257C153.243 36.1257 151.798 35.6563 150.576 34.7175C149.353 33.7787 148.407 32.4598 147.737 30.7608C147.066 29.0619 146.73 27.0798 146.73 24.8145C146.73 22.5492 147.058 20.5157 147.714 18.8006C148.369 17.0874 149.308 15.7761 150.53 14.8668C151.752 13.9574 153.197 13.5032 154.867 13.5032C156.536 13.5032 157.982 13.9584 159.204 14.8668C160.426 15.7761 161.364 17.0874 162.02 18.8006C162.676 20.5148 163.004 22.5197 163.004 24.8145C163.004 27.1092 162.676 29.1512 162.02 30.8502H162.022Z" fill="#7F7F7F"/>
<path d="M177.225 34.6947C176.972 34.5759 176.785 34.3745 176.667 34.0913C176.547 33.8082 176.488 33.3986 176.488 32.8618V1.78821H171.212V35.3209C171.212 36.2758 171.383 37.0873 171.726 37.7572C172.069 38.4281 172.576 38.9355 173.247 39.2775C173.918 39.6206 174.729 39.7916 175.683 39.7916H182.792V34.8733H178.321C177.844 34.8733 177.478 34.8135 177.225 34.6947Z" fill="#7F7F7F"/>
<path d="M190.476 34.6947C190.222 34.5759 190.036 34.3745 189.917 34.0913C189.797 33.8082 189.738 33.3986 189.738 32.8618V1.78821H184.463V35.3209C184.463 36.2758 184.634 37.0873 184.977 37.7572C185.319 38.4281 185.826 38.9355 186.497 39.2775C187.168 39.6206 187.98 39.7916 188.934 39.7916H196.042V34.8733H191.571C191.094 34.8733 190.729 34.8135 190.476 34.6947Z" fill="#7F7F7F"/>
<path d="M216.293 11.0213C214.251 9.69581 211.859 9.03162 209.117 9.03162C206.375 9.03162 203.982 9.69486 201.941 11.0213C199.899 12.3478 198.334 14.2036 197.246 16.5876C196.158 18.9726 195.615 21.7149 195.615 24.8145C195.615 27.9141 196.158 30.6573 197.246 33.0414C198.334 35.4264 199.899 37.2821 201.941 38.6077C203.982 39.9332 206.375 40.5974 209.117 40.5974C211.322 40.5974 213.304 40.165 215.063 39.3003C216.822 38.4366 218.289 37.2071 219.467 35.6117C220.645 34.0172 221.502 32.132 222.038 29.956H216.584C215.987 31.9534 215.04 33.488 213.744 34.5607C212.447 35.6335 210.92 36.1561 209.162 36.1257C206.866 36.0963 205.003 35.2534 203.572 33.5991C202.141 31.9448 201.307 29.613 201.069 26.6018H222.619V24.8135C222.619 21.714 222.075 18.9717 220.988 16.5867C219.9 14.2026 218.335 12.3469 216.293 11.0204V11.0213ZM201.158 22.1311C201.515 19.3888 202.394 17.2651 203.796 15.76C205.196 14.2558 206.97 13.5023 209.116 13.5023C211.262 13.5023 213.035 14.2558 214.436 15.76C215.837 17.2651 216.717 19.3898 217.074 22.1311H201.157H201.158Z" fill="#7F7F7F"/>
<path d="M233.003 14.844C234.225 13.9499 235.655 13.5023 237.295 13.5023C239.202 13.5023 240.812 14.2482 242.124 15.7382C243.435 17.229 244.18 19.2853 244.36 21.9078H249.726C249.547 19.3442 248.913 17.0941 247.825 15.1566C246.737 13.2192 245.292 11.714 243.489 10.6413C241.685 9.56848 239.621 9.03162 237.296 9.03162C234.553 9.03162 232.161 9.69486 230.12 11.0213C228.078 12.3478 226.513 14.2036 225.425 16.5876C224.337 18.9726 223.794 21.7149 223.794 24.8145C223.794 27.9141 224.337 30.6573 225.425 33.0414C226.513 35.4264 228.078 37.2821 230.12 38.6077C232.161 39.9332 234.554 40.5974 237.296 40.5974C239.502 40.5974 241.491 40.1052 243.264 39.1217C245.038 38.1382 246.476 36.7377 247.579 34.919C248.682 33.1012 249.352 30.9994 249.591 28.6153H244.181C243.943 30.9699 243.183 32.8181 241.901 34.1597C240.619 35.5005 239.099 36.1571 237.34 36.1267C234.836 36.0972 232.846 35.0909 231.372 33.1088C229.896 31.1267 229.159 28.3626 229.159 24.8154C229.159 22.4608 229.494 20.4341 230.165 18.7351C230.836 17.0361 231.781 15.7401 233.004 14.845L233.003 14.844Z" fill="#7F7F7F"/>
<path d="M261.25 3.12988H255.974V9.83642H249.671V14.7547H255.974V32.8627C255.974 34.2643 256.258 35.4862 256.824 36.5286C257.39 37.5719 258.21 38.3767 259.283 38.9431C260.356 39.5094 261.622 39.7925 263.083 39.7925H269.342V34.8743H263.083C262.606 34.8743 262.24 34.8144 261.987 34.6957C261.734 34.5769 261.547 34.3754 261.429 34.0923C261.309 33.8091 261.25 33.3996 261.25 32.8627V14.7547H269.342V9.83642H261.25V3.12988Z" fill="#7F7F7F"/>
<path d="M279.59 0H273.777V5.8124H279.59V0Z" fill="#7F7F7F"/>
<path d="M279.702 10.3505C279.031 10.0084 278.219 9.83643 277.266 9.83643H270.157V14.7547H274.628C275.105 14.7547 275.47 14.8145 275.723 14.9333C275.976 15.053 276.162 15.2535 276.282 15.5367C276.401 15.8208 276.461 16.2294 276.461 16.7663V39.7916H281.736V14.3071C281.736 13.3531 281.564 12.5407 281.222 11.8708C280.879 11.2 280.373 10.6935 279.702 10.3505Z" fill="#7F7F7F"/>
<path d="M304.935 9.83643L296.707 33.1563L288.437 9.83643H282.759L293.847 39.7916H299.436L310.524 9.83643H304.935Z" fill="#7F7F7F"/>
<path d="M329.984 11.0213C327.942 9.69581 325.55 9.03162 322.808 9.03162C320.066 9.03162 317.673 9.69486 315.632 11.0213C313.59 12.3478 312.025 14.2036 310.937 16.5876C309.849 18.9726 309.306 21.7149 309.306 24.8145C309.306 27.9141 309.849 30.6573 310.937 33.0414C312.025 35.4264 313.59 37.2821 315.632 38.6077C317.673 39.9332 320.066 40.5974 322.808 40.5974C325.013 40.5974 326.995 40.165 328.754 39.3003C330.513 38.4366 331.98 37.2071 333.159 35.6117C334.336 34.0172 335.193 32.132 335.729 29.956H330.275C329.678 31.9534 328.732 33.488 327.435 34.5607C326.138 35.6335 324.611 36.1561 322.853 36.1257C320.557 36.0963 318.695 35.2534 317.263 33.5991C315.832 31.9448 314.998 29.613 314.76 26.6018H336.31V24.8135C336.31 21.714 335.766 18.9717 334.679 16.5867C333.591 14.2026 332.026 12.3469 329.984 11.0204V11.0213ZM314.85 22.1311C315.207 19.3888 316.086 17.2651 317.488 15.76C318.888 14.2558 320.662 13.5023 322.808 13.5023C324.954 13.5023 326.727 14.2558 328.128 15.76C329.529 17.2651 330.409 19.3898 330.766 22.1311H314.849H314.85Z" fill="#7F7F7F"/>
<path d="M360.413 7.3545C359.355 5.55101 357.925 4.12095 356.121 3.06243C354.318 2.00485 352.358 1.47559 350.242 1.47559C348.126 1.47559 346.114 2.00485 344.296 3.06243C342.477 4.12095 341.04 5.55196 339.981 7.3545C338.922 9.15798 338.394 11.1325 338.394 13.279C338.394 15.4255 338.923 17.363 339.981 19.1807C341.039 20.9994 342.477 22.438 344.296 23.4956C346.114 24.5541 348.097 25.0824 350.242 25.0824C352.388 25.0824 354.318 24.5532 356.121 23.4956C357.925 22.438 359.355 20.9994 360.413 19.1807C361.471 17.363 362 15.3961 362 13.279C362 11.162 361.471 9.15893 360.413 7.3545ZM358.468 18.0405C357.603 19.5162 356.441 20.6859 354.981 21.5505C353.52 22.4152 351.94 22.8476 350.241 22.8476C348.542 22.8476 346.873 22.4162 345.412 21.5505C343.952 20.6868 342.789 19.5238 341.925 18.0633C341.06 16.6028 340.628 15.0084 340.628 13.279C340.628 11.5496 341.059 9.95615 341.925 8.49474C342.789 7.03428 343.952 5.87218 345.412 5.00749C346.873 4.14376 348.482 3.71046 350.241 3.71046C352.001 3.71046 353.557 4.14281 355.003 5.00749C356.448 5.87218 357.603 7.03523 358.468 8.49474C359.332 9.9552 359.765 11.5506 359.765 13.279C359.765 15.0074 359.333 16.5648 358.468 18.0405Z" fill="#7F7F7F"/>
<path d="M354.913 13.1896C355.434 12.6528 355.695 11.8033 355.695 10.6412C355.695 9.2406 355.226 8.22673 354.287 7.60054C353.348 6.97436 352.014 6.66174 350.286 6.66174H345.815V19.3593H348.14V14.575H350.332L353.282 19.3593H355.83L352.7 14.2624C353.654 14.0838 354.392 13.7256 354.913 13.1896ZM350.286 12.6974H348.14V8.53935H350.286C351.329 8.53935 352.082 8.69613 352.544 9.00875C353.005 9.32136 353.236 9.85158 353.236 10.5956C353.236 11.3396 353.004 11.9145 352.544 12.2271C352.081 12.5397 351.328 12.6965 350.286 12.6965V12.6974Z" fill="#7F7F7F"/>
</svg>
